<?xml version="1.0" encoding="UTF-8" standalone="no"?>
<!-- Created with Inkscape (http://www.inkscape.org/) -->

<svg
   xmlns:dc="http://purl.org/dc/elements/1.1/"
   xmlns:cc="http://creativecommons.org/ns#"
   xmlns:rdf="http://www.w3.org/1999/02/22-rdf-syntax-ns#"
   xmlns:svg="http://www.w3.org/2000/svg"
   xmlns="http://www.w3.org/2000/svg"
   xmlns:sodipodi="http://sodipodi.sourceforge.net/DTD/sodipodi-0.dtd"
   xmlns:inkscape="http://www.inkscape.org/namespaces/inkscape"
   width="128px"
   height="128px"
   viewBox="0 0 128 128"
   version="1.1"
   id="SVGRoot"
   inkscape:version="0.92.5 (2060ec1f9f, 2020-04-08)"
   sodipodi:docname="icon.svg"
   inkscape:export-filename="/home/iguazu/VSCodeProjects/time-tracking/static/icon.png"
   inkscape:export-xdpi="96"
   inkscape:export-ydpi="96">
  <defs
     id="defs10" />
  <sodipodi:namedview
     id="base"
     pagecolor="#bee6ff"
     bordercolor="#666666"
     borderopacity="1.0"
     inkscape:pageopacity="1"
     inkscape:pageshadow="2"
     inkscape:zoom="4"
     inkscape:cx="106.83106"
     inkscape:cy="69"
     inkscape:document-units="px"
     inkscape:current-layer="layer1"
     showgrid="false"
     inkscape:window-width="1920"
     inkscape:window-height="1016"
     inkscape:window-x="0"
     inkscape:window-y="27"
     inkscape:window-maximized="1"
     inkscape:grid-bbox="true" />
  <metadata
     id="metadata13">
    <rdf:RDF>
      <cc:Work
         rdf:about="">
        <dc:format>image/svg+xml</dc:format>
        <dc:type
           rdf:resource="http://purl.org/dc/dcmitype/StillImage" />
        <dc:title />
      </cc:Work>
    </rdf:RDF>
  </metadata>
  <g
     inkscape:label="Layer 1"
     inkscape:groupmode="layer"
     id="layer1">
    <text
       xml:space="preserve"
       style="font-style:normal;font-weight:normal;font-size:40px;line-height:1.25;font-family:sans-serif;letter-spacing:0px;word-spacing:0px;fill:#4d4d4d;fill-opacity:1;stroke:none;"
       x="63.63961"
       y="26.88373"
       id="text25"><tspan
         sodipodi:role="line"
         id="tspan23"
         x="63.639614"
         y="26.88373"
         style="font-style:normal;font-variant:normal;font-weight:bold;font-stretch:normal;font-size:26.66666603px;font-family:sans-serif;-inkscape-font-specification:'sans-serif, Bold';font-variant-ligatures:normal;font-variant-caps:normal;font-variant-numeric:normal;font-feature-settings:normal;text-align:center;writing-mode:lr-tb;text-anchor:middle;fill:#4d4d4d">MIMUW</tspan></text>
    <text
       xml:space="preserve"
       style="font-style:normal;font-weight:normal;font-size:40px;line-height:1.25;font-family:sans-serif;letter-spacing:0px;word-spacing:0px;fill:#4d4d4d;fill-opacity:1;stroke:none"
       x="62.755726"
       y="119.86828"
       id="text29"><tspan
         sodipodi:role="line"
         id="tspan27"
         x="62.755726"
         y="119.86828"
         style="font-style:normal;font-variant:normal;font-weight:bold;font-stretch:normal;font-size:26.66666603px;font-family:sans-serif;-inkscape-font-specification:'sans-serif, Bold';font-variant-ligatures:normal;font-variant-caps:normal;font-variant-numeric:normal;font-feature-settings:normal;text-align:center;writing-mode:lr-tb;text-anchor:middle;fill:#4d4d4d">MB TT</tspan></text>
    <path
       sodipodi:type="star"
       style="fill:none;fill-opacity:1;stroke:#4d4d4d;stroke-opacity:1"
       id="path69"
       sodipodi:sides="3"
       sodipodi:cx="41.896076"
       sodipodi:cy="54.460896"
       sodipodi:r1="18.86879"
       sodipodi:r2="9.4343948"
       sodipodi:arg1="-0.26543036"
       sodipodi:arg2="0.78176719"
       inkscape:flatsided="false"
       inkscape:rounded="0"
       inkscape:randomized="0"
       d="M 60.104075,49.511148 48.591379,61.107754 37.078684,72.704359 32.792077,56.935769 28.50547,41.16718 44.304772,45.339164 Z"
       inkscape:transform-center-x="1.3414893"
       inkscape:transform-center-y="9.0399024"
       transform="rotate(-134.75358,50.943906,45.206346)" />
    <path
       sodipodi:type="star"
       style="fill:none;fill-opacity:1;stroke:#4d4d4d;stroke-opacity:1"
       id="path69-0"
       sodipodi:sides="3"
       sodipodi:cx="41.896076"
       sodipodi:cy="54.460896"
       sodipodi:r1="18.86879"
       sodipodi:r2="9.4343948"
       sodipodi:arg1="-0.26543036"
       sodipodi:arg2="0.78176719"
       inkscape:flatsided="false"
       inkscape:rounded="0"
       inkscape:randomized="0"
       d="M 60.104075,49.511148 48.591379,61.107754 37.078684,72.704359 32.792077,56.935769 28.50547,41.16718 44.304772,45.339164 Z"
       inkscape:transform-center-x="-1.3414892"
       inkscape:transform-center-y="-9.0399026"
       transform="rotate(45.24642,18.813064,95.010572)" />
    <path
       style="fill:#4d4d4d;stroke:#000000;stroke-width:1px;stroke-linecap:butt;stroke-linejoin:miter;stroke-opacity:1"
       d="M 56.922096,51.986021 H 70.710678"
       id="path897"
       inkscape:connector-curvature="0" />
    <path
       style="fill:#4d4d4d;fill-opacity:1;stroke:#4d4d4d;stroke-width:0.17677669;stroke-opacity:1"
       d="m 60.955971,57.760149 c -1.553316,-2.692992 -2.850728,-4.960153 -2.883137,-5.038136 -0.03241,-0.07798 2.579467,-0.141788 5.804168,-0.141788 3.263306,0 5.836965,0.06837 5.804168,0.154189 -0.157626,0.412455 -5.720884,9.922083 -5.804549,9.922083 -0.05304,0 -1.367334,-2.203357 -2.92065,-4.896348 z"
       id="path899"
       inkscape:connector-curvature="0" />
    <path
       style="fill:#4d4d4d;fill-opacity:1;stroke:#4d4d4d;stroke-width:0.17677669;stroke-opacity:1"
       d="m 56.982711,51.961507 v -0.441942 h 6.805903 6.805903 v 0.441942 0.441942 h -6.805903 -6.805903 z"
       id="path901"
       inkscape:connector-curvature="0" />
    <path
       style="fill:#4d4d4d;fill-opacity:1;stroke:#4d4d4d;stroke-width:0.03125;stroke-opacity:1"
       d="m 50.987311,85.312941 c 0,-0.0066 2.770312,-4.802907 6.15625,-10.658388 3.385937,-5.855483 6.15625,-10.657058 6.15625,-10.670168 0,-0.01311 -2.743676,-4.782851 -6.097057,-10.599423 -3.35338,-5.816573 -6.104104,-10.593165 -6.112718,-10.61465 -0.01219,-0.0304 0.108022,-0.03877 0.542369,-0.03777 l 0.558031,0.0013 2.504454,4.350267 2.504454,4.350268 6.683046,0.0072 6.683046,0.0072 2.515625,-4.357638 2.515625,-4.357639 0.554687,-0.0011 c 0.305078,-6e-4 0.554688,0.0061 0.554688,0.0148 0,0.0087 -2.757492,4.784483 -6.127759,10.612765 -3.485375,6.027342 -6.121962,10.618995 -6.114317,10.648173 0.0115,0.04389 12.108077,21.049803 12.235599,21.247331 l 0.04586,0.07103 -0.569325,-0.0085 -0.569325,-0.0085 -5.854827,-10.15625 c -3.220155,-5.585937 -5.865582,-10.15625 -5.878727,-10.15625 -0.01315,0 -2.668247,4.573662 -5.900227,10.163694 l -5.876326,10.163694 -0.554688,3.75e-4 c -0.305078,1.96e-4 -0.554687,-0.0051 -0.554687,-0.0117 z M 65.17648,60.7625 c 1.464389,-2.532644 1.424198,-2.46226 1.382944,-2.421875 -0.01756,0.01719 -0.254192,0.410937 -0.525855,0.875 -0.914462,1.562109 -2.018339,3.391293 -2.08285,3.451394 -0.03521,0.0328 -0.08349,0.05216 -0.107304,0.04303 -0.07103,-0.02726 -0.828107,-1.266225 -1.934787,-3.166296 -0.185198,-0.317969 -0.350789,-0.592188 -0.36798,-0.609375 -0.02084,-0.02083 -0.02578,-0.02083 -0.01483,0 0.06835,0.130001 2.289558,3.977649 2.314434,4.009137 0.01755,0.02221 0.04282,0.02924 0.05617,0.01563 0.01335,-0.01362 0.58937,-1.002106 1.280055,-2.196637 z M 61.471686,58.79375 C 61.445022,58.742187 61.416174,58.7 61.407581,58.7 c -0.0086,0 0.0062,0.04219 0.03285,0.09375 0.02666,0.05156 0.05551,0.09375 0.06411,0.09375 0.0086,0 -0.0062,-0.04219 -0.03286,-0.09375 z m -0.125,-0.21875 c -0.02666,-0.05156 -0.05551,-0.09375 -0.0641,-0.09375 -0.0086,0 0.0062,0.04219 0.03285,0.09375 0.02666,0.05156 0.05551,0.09375 0.06411,0.09375 0.0086,0 -0.0062,-0.04219 -0.03286,-0.09375 z m -0.109375,-0.1875 c -0.0184,-0.03438 -0.04048,-0.0625 -0.04907,-0.0625 -0.0086,0 -5.72e-4,0.02812 0.01782,0.0625 0.0184,0.03437 0.04048,0.0625 0.04907,0.0625 0.0086,0 5.72e-4,-0.02813 -0.01782,-0.0625 z M 61.127936,58.2 c -0.02666,-0.05156 -0.05551,-0.09375 -0.0641,-0.09375 -0.0086,0 0.0062,0.04219 0.03285,0.09375 0.02666,0.05156 0.05551,0.09375 0.06411,0.09375 0.0086,0 -0.0062,-0.04219 -0.03286,-0.09375 z m 5.515625,0.03125 c 0.0184,-0.03438 0.02642,-0.0625 0.01782,-0.0625 -0.0086,0 -0.03068,0.02812 -0.04907,0.0625 -0.0184,0.03437 -0.02642,0.0625 -0.01782,0.0625 0.0086,0 0.03068,-0.02813 0.04907,-0.0625 z m -5.625,-0.21875 c -0.0184,-0.03438 -0.04048,-0.0625 -0.04907,-0.0625 -0.0086,0 -5.72e-4,0.02812 0.01782,0.0625 0.0184,0.03437 0.04048,0.0625 0.04907,0.0625 0.0086,0 5.72e-4,-0.02813 -0.01782,-0.0625 z m 5.75,0 c 0.0184,-0.03438 0.02642,-0.0625 0.01782,-0.0625 -0.0086,0 -0.03068,0.02812 -0.04907,0.0625 -0.0184,0.03437 -0.02642,0.0625 -0.01782,0.0625 0.0086,0 0.03068,-0.02813 0.04907,-0.0625 z m -5.875,-0.21875 c -0.0184,-0.03438 -0.04048,-0.0625 -0.04907,-0.0625 -0.0086,0 -5.72e-4,0.02812 0.01782,0.0625 0.0184,0.03437 0.04048,0.0625 0.04907,0.0625 0.0086,0 5.72e-4,-0.02813 -0.01782,-0.0625 z m -0.125,-0.21875 c -0.0184,-0.03438 -0.04048,-0.0625 -0.04907,-0.0625 -0.0086,0 -5.72e-4,0.02812 0.01782,0.0625 0.0184,0.03437 0.04048,0.0625 0.04907,0.0625 0.0086,0 5.72e-4,-0.02813 -0.01782,-0.0625 z m -0.109375,-0.1875 c -0.02666,-0.05156 -0.05551,-0.09375 -0.0641,-0.09375 -0.0086,0 0.0062,0.04219 0.03285,0.09375 0.02666,0.05156 0.05551,0.09375 0.06411,0.09375 0.0086,0 -0.0062,-0.04219 -0.03286,-0.09375 z M 60.549811,57.2 c -0.0184,-0.03438 -0.04048,-0.0625 -0.04907,-0.0625 -0.0086,0 -5.72e-4,0.02812 0.01782,0.0625 0.0184,0.03437 0.04048,0.0625 0.04907,0.0625 0.0086,0 5.72e-4,-0.02813 -0.01782,-0.0625 z m -0.125,-0.21875 c -0.0184,-0.03438 -0.04048,-0.0625 -0.04907,-0.0625 -0.0086,0 -5.72e-4,0.02812 0.01782,0.0625 0.0184,0.03437 0.04048,0.0625 0.04907,0.0625 0.0086,0 5.72e-4,-0.02813 -0.01782,-0.0625 z m -0.125,-0.21875 c -0.0184,-0.03438 -0.04048,-0.0625 -0.04907,-0.0625 -0.0086,0 -5.72e-4,0.02812 0.01782,0.0625 0.0184,0.03437 0.04048,0.0625 0.04907,0.0625 0.0086,0 5.72e-4,-0.02813 -0.01782,-0.0625 z M 60.190436,56.575 c -0.02666,-0.05156 -0.05551,-0.09375 -0.0641,-0.09375 -0.0086,0 0.0062,0.04219 0.03285,0.09375 0.02666,0.05156 0.05551,0.09375 0.06411,0.09375 0.0086,0 -0.0062,-0.04219 -0.03286,-0.09375 z m -0.125,-0.21875 c -0.02666,-0.05156 -0.05551,-0.09375 -0.0641,-0.09375 -0.0086,0 0.0062,0.04219 0.03285,0.09375 0.02666,0.05156 0.05551,0.09375 0.06411,0.09375 0.0086,0 -0.0062,-0.04219 -0.03286,-0.09375 z m -0.125,-0.21875 c -0.02666,-0.05156 -0.05551,-0.09375 -0.0641,-0.09375 -0.0086,0 0.0062,0.04219 0.03285,0.09375 0.02666,0.05156 0.05551,0.09375 0.06411,0.09375 0.0086,0 -0.0062,-0.04219 -0.03286,-0.09375 z m -0.125,-0.21875 c -0.02666,-0.05156 -0.05551,-0.09375 -0.0641,-0.09375 -0.0086,0 0.0062,0.04219 0.03285,0.09375 0.02666,0.05156 0.05551,0.09375 0.06411,0.09375 0.0086,0 -0.0062,-0.04219 -0.03286,-0.09375 z m -0.109375,-0.1875 c -0.0184,-0.03438 -0.04048,-0.0625 -0.04907,-0.0625 -0.0086,0 -5.72e-4,0.02812 0.01782,0.0625 0.0184,0.03437 0.04048,0.0625 0.04907,0.0625 0.0086,0 5.72e-4,-0.02813 -0.01782,-0.0625 z m -0.109375,-0.1875 c -0.02666,-0.05156 -0.05551,-0.09375 -0.0641,-0.09375 -0.0086,0 0.0062,0.04219 0.03285,0.09375 0.02666,0.05156 0.05551,0.09375 0.06411,0.09375 0.0086,0 -0.0062,-0.04219 -0.03286,-0.09375 z m -0.125,-0.21875 c -0.02666,-0.05156 -0.05551,-0.09375 -0.0641,-0.09375 -0.0086,0 0.0062,0.04219 0.03285,0.09375 0.02666,0.05156 0.05551,0.09375 0.06411,0.09375 0.0086,0 -0.0062,-0.04219 -0.03286,-0.09375 z m -0.125,-0.21875 c -0.02666,-0.05156 -0.05551,-0.09375 -0.0641,-0.09375 -0.0086,0 0.0062,0.04219 0.03285,0.09375 0.02666,0.05156 0.05551,0.09375 0.06411,0.09375 0.0086,0 -0.0062,-0.04219 -0.03286,-0.09375 z m -0.08784,-0.148438 c -0.0074,-0.01289 -0.107815,-0.188671 -0.223203,-0.390625 C 58.920251,54.365234 58.819156,54.2 58.810982,54.2 c -0.0082,0 -0.0088,0.01055 -0.0015,0.02344 0.0074,0.01289 0.107815,0.188672 0.223203,0.390625 0.115389,0.201954 0.216484,0.367188 0.224657,0.367188 0.0082,0 0.0088,-0.01055 0.0015,-0.02344 z m -0.502703,-0.875 c -0.0249,-0.04726 -0.20103,-0.360156 -0.391395,-0.695312 -0.190364,-0.335156 -0.346132,-0.634333 -0.34615,-0.664836 -1.8e-5,-0.0305 0.0346,-0.06863 0.07692,-0.08472 0.204457,-0.07773 1.811209,-0.108394 5.704293,-0.108849 3.791395,-4.44e-4 5.423397,0.02867 5.778267,0.103067 0.215421,0.04516 0.208507,0.09291 -0.09013,0.622525 -0.07027,0.12461 -0.121626,0.226563 -0.114135,0.226563 0.01001,0 0.456643,-0.760829 0.573269,-0.976563 0.007,-0.01289 -2.717789,-0.02344 -6.055017,-0.02344 -5.765877,0 -6.066649,0.0027 -6.046794,0.05469 0.03083,0.08069 0.926945,1.632813 0.942701,1.632813 0.0074,0 -0.0069,-0.03867 -0.03183,-0.08594 z M 69.299811,53.6375 c 0.0184,-0.03438 0.02642,-0.0625 0.01782,-0.0625 -0.0086,0 -0.03068,0.02812 -0.04907,0.0625 -0.0184,0.03437 -0.02642,0.0625 -0.01782,0.0625 0.0086,0 0.03068,-0.02813 0.04907,-0.0625 z m 1.4375,-1.658094 c 0,-0.311271 -0.01172,-0.498156 -0.03125,-0.498156 -0.01958,0 -0.03125,0.193323 -0.03125,0.517469 0,0.337022 0.0109,0.510735 0.03125,0.498156 0.01872,-0.01157 0.03125,-0.219074 0.03125,-0.517469 z"
       id="path903"
       inkscape:connector-curvature="0" />
    <path
       style="fill:#4d4d4d;fill-opacity:1;stroke:#4d4d4d;stroke-width:0.03125;stroke-opacity:1"
       d="m 69.730008,52.670002 c -0.06273,-0.07326 -0.243474,-0.09709 -0.961409,-0.126719 -0.539775,-0.02228 -0.536003,-0.02257 0.289024,-0.02231 0.459766,1.46e-4 0.835938,0.005 0.835938,0.01076 0,0.0058 -0.02551,0.05244 -0.05668,0.103696 -0.0547,0.08994 -0.05843,0.09115 -0.106877,0.03457 z"
       id="path905"
       inkscape:connector-curvature="0" />
    <path
       style="fill:#4d4d4d;fill-opacity:1;stroke:#4d4d4d;stroke-width:0.03125;stroke-opacity:1"
       d="m 57.924766,52.637416 c -0.01995,-0.03727 -0.02694,-0.07711 -0.01554,-0.08853 0.0114,-0.01142 0.374647,-0.02273 0.80722,-0.02513 l 0.786495,-0.0044 -0.604887,0.02495 c -0.67121,0.02768 -0.808253,0.04534 -0.884814,0.11402 -0.04687,0.04205 -0.0559,0.03991 -0.08847,-0.02095 z"
       id="path907"
       inkscape:connector-curvature="0" />
    <path
       style="fill:#4d4d4d;fill-opacity:1;stroke:#4d4d4d;stroke-width:0.03125;stroke-opacity:1"
       d="m 68.042824,52.520828 c 0.0735,-0.0066 0.186001,-0.0065 0.25,2.06e-4 0.064,0.0067 0.0039,0.01212 -0.133638,0.012 -0.1375,-1.13e-4 -0.189863,-0.0056 -0.116362,-0.01221 z"
       id="path909"
       inkscape:connector-curvature="0" />
    <path
       style="fill:#4d4d4d;fill-opacity:1;stroke:#4d4d4d;stroke-width:0.03125;stroke-opacity:1"
       d="m 66.690436,52.5125 -0.625,-0.01763 0.84375,-0.0045 c 0.464062,-0.0025 0.907031,0.0068 0.984375,0.02053 0.164001,0.02918 -0.207518,0.02967 -1.203125,0.0016 z"
       id="path911"
       inkscape:connector-curvature="0" />
    <path
       style="fill:#4d4d4d;fill-opacity:1;stroke:#4d4d4d;stroke-width:0.03125;stroke-opacity:1"
       d="m 63.722888,62.698798 c -0.16303,-0.282645 -0.175466,-0.371015 -0.01759,-0.124986 0.131619,0.20511 0.236008,0.20393 0.347249,-0.0039 0.01847,-0.03451 0.04076,-0.05556 0.04954,-0.04678 0.01227,0.01227 -0.180215,0.374211 -0.223709,0.420647 -0.0048,0.0052 -0.0748,-0.105071 -0.155489,-0.244958 z"
       id="path913"
       inkscape:connector-curvature="0" />
    <path
       style="fill:#4d4d4d;fill-opacity:1;stroke:#4d4d4d;stroke-width:0.03125;stroke-opacity:1"
       d="m 51.012808,85.224138 c 0.03449,-0.05624 0.582134,-1.002263 1.216986,-2.102263 0.634851,-1.1 2.820725,-4.882812 4.857498,-8.40625 5.55826,-9.615298 6.181269,-10.696865 6.181269,-10.730921 0,-0.03337 -0.425974,-0.776419 -4.203053,-7.331579 C 57.73845,54.35 55.502266,50.46875 54.096212,48.028125 52.690157,45.5875 51.429944,43.400781 51.295738,43.16875 l -0.244012,-0.421875 0.567066,-0.0085 c 0.311886,-0.0047 0.577779,0.0023 0.590874,0.01563 0.01309,0.01329 1.141699,1.964789 2.508011,4.336664 l 2.484202,4.3125 6.681778,0.0071 6.681779,0.0071 2.5,-4.331286 c 1.375,-2.382208 2.514535,-4.336904 2.5323,-4.343769 0.01777,-0.0069 0.279776,-0.0086 0.582246,-0.0039 l 0.549944,0.0086 -1.100319,1.90625 c -0.605176,1.048437 -2.380537,4.121094 -3.945247,6.828125 -6.309661,10.91605 -7.208958,12.486392 -7.185563,12.547357 0.02856,0.07443 7.412289,12.903456 11.702847,20.333377 0.294617,0.510185 0.535667,0.935575 0.535667,0.945313 0,0.0097 -0.25697,0.0177 -0.571044,0.0177 H 75.595224 L 72.816561,80.504688 C 65.139885,67.1875 63.898863,65.043445 63.867848,65.044406 c -0.01164,3.59e-4 -0.384885,0.629657 -0.829434,1.398437 -0.444549,0.76878 -2.232391,3.85872 -3.972983,6.866532 -1.740591,3.007813 -4.014391,6.938281 -5.052889,8.734375 l -1.888177,3.265625 -0.587134,0.0085 -0.587134,0.0085 z M 64.486805,61.91875 c 0.406575,-0.703559 0.392268,-0.677884 0.363402,-0.652157 -0.05423,0.04833 -0.761568,1.243069 -0.745479,1.259157 0.0224,0.0224 -0.027,0.100896 0.382077,-0.607 z m -1.095188,0.150914 c -0.246907,-0.397704 -0.311422,-0.4802 -0.142459,-0.182164 0.06334,0.111719 0.160216,0.28276 0.21529,0.380092 0.05507,0.09733 0.109855,0.17096 0.121736,0.163616 0.01188,-0.0073 -0.07567,-0.170038 -0.194567,-0.361544 z M 63.112311,61.60625 c -0.0184,-0.03438 -0.04048,-0.0625 -0.04907,-0.0625 -0.0086,0 -5.72e-4,0.02812 0.01782,0.0625 0.0184,0.03437 0.04048,0.0625 0.04907,0.0625 0.0086,0 5.72e-4,-0.02813 -0.01782,-0.0625 z M 63.018561,61.45 c -0.0184,-0.03438 -0.04048,-0.0625 -0.04907,-0.0625 -0.0086,0 -5.72e-4,0.02812 0.01782,0.0625 0.0184,0.03437 0.04048,0.0625 0.04907,0.0625 0.0086,0 5.72e-4,-0.02813 -0.01782,-0.0625 z m 1.90625,-0.28125 c 0.0184,-0.03438 0.02642,-0.0625 0.01782,-0.0625 -0.0086,0 -0.03068,0.02812 -0.04907,0.0625 -0.0184,0.03437 -0.02642,0.0625 -0.01782,0.0625 0.0086,0 0.03068,-0.02813 0.04907,-0.0625 z m 4.85804,-8.404091 c 0.0099,-0.016 0.006,-0.03648 -0.0086,-0.0455 -0.0146,-0.009 -0.02655,0.0041 -0.02655,0.02909 0,0.05269 0.0099,0.0573 0.03512,0.01641 z M 57.941262,52.518535 c -0.0096,-0.0096 -0.03484,-2e-5 -0.05604,0.02134 -0.03063,0.03086 -0.02704,0.03445 0.01749,0.01749 0.03082,-0.01174 0.04816,-0.02921 0.03854,-0.03883 z m 1.928861,0.0023 c -0.07305,-0.0066 -0.192578,-0.0066 -0.265625,0 -0.07305,0.0066 -0.01328,0.01196 0.132813,0.01196 0.146093,0 0.205859,-0.0054 0.132812,-0.01196 z"
       id="path915"
       inkscape:connector-curvature="0" />
    <path
       style="fill:none;stroke:#000000;stroke-width:1px;stroke-linecap:butt;stroke-linejoin:miter;stroke-opacity:1"
       d="M 52.1875,84.03125 H 75.46875"
       id="path917"
       inkscape:connector-curvature="0" />
    <path
       style="fill:#4d4d4d;fill-opacity:1;stroke:#4d4d4d;stroke-width:0.03125;stroke-opacity:1"
       d="m 52.030753,91.762695 -3.628433,-0.01582 1.800361,-3.112953 c 0.990199,-1.712124 1.857539,-3.202749 1.927424,-3.3125 0.06988,-0.109751 0.201686,-0.329625 0.292893,-0.488609 l 0.165831,-0.289063 11.269553,8.14e-4 11.269554,8.14e-4 0.1875,0.332128 c 0.103125,0.18267 0.238884,0.41082 0.301686,0.506998 0.11966,0.183253 3.645721,6.295484 3.673424,6.367678 0.01326,0.03455 -1.979166,0.04028 -11.807704,0.03395 -6.503011,-0.0042 -13.456451,-0.01474 -15.452089,-0.02344 z"
       id="path919"
       inkscape:connector-curvature="0" />
    <path
       style="fill:#4d4d4d;fill-opacity:1;stroke:#4d4d4d;stroke-width:0.03125;stroke-opacity:1"
       d="m 52.17481,84.028125 v -0.5 l 11.648438,0.0066 11.648438,0.0066 0.0085,0.493355 0.0085,0.493356 H 63.831797 52.17481 Z"
       id="path921"
       inkscape:connector-curvature="0" />
    <path
       style="fill:#4d4d4d;fill-opacity:1;stroke:#4d4d4d;stroke-width:0.03125;stroke-opacity:1"
       d="m 79.088873,91.771367 c 0.04727,-0.0072 0.124609,-0.0072 0.171875,0 0.04727,0.0072 0.0086,0.01302 -0.08594,0.01302 -0.09453,0 -0.133204,-0.0059 -0.08594,-0.01302 z"
       id="path923"
       inkscape:connector-curvature="0" />
    <path
       style="fill:#4d4d4d;fill-opacity:1;stroke:#4d4d4d;stroke-width:0.03125;stroke-opacity:1"
       d="m 49.604498,92.770314 c -1.611328,-0.0045 -2.929687,-0.01479 -2.929687,-0.02292 0,-0.0081 0.935716,-1.632921 2.07937,-3.610643 1.143655,-1.977721 2.109538,-3.65498 2.146408,-3.727242 0.03687,-0.07226 0.680504,-1.193103 1.430297,-2.490759 0.749792,-1.297656 3.027874,-5.242187 5.062403,-8.765625 2.03453,-3.523437 3.701584,-6.410076 3.704566,-6.414753 0.003,-0.0047 0.274838,-0.0047 0.604127,0 l 0.598706,0.0085 -3.697211,6.390625 c -2.033467,3.514844 -4.085538,7.062109 -4.560159,7.882813 l -0.862947,1.49219 h 10.669095 c 5.868002,0 10.669095,-0.006 10.669095,-0.01329 0,-0.0157 -8.460305,-14.691729 -8.941146,-15.510145 L 65.425943,67.73125 h 0.605815 0.605814 l 0.507723,0.882813 c 1.635578,2.843891 5.520792,9.589394 7.123141,12.367187 2.248937,3.898703 2.500125,4.336667 2.500125,4.359142 0,0.0096 0.958076,1.679975 2.129056,3.711961 1.170984,2.031987 2.135094,3.705069 2.142472,3.71796 0.01193,0.02085 -23.925851,0.02085 -31.435591,10e-7 z m -0.655025,-0.999621 c -0.09815,-0.0062 -0.266905,-0.0062 -0.375,-1.25e-4 -0.108096,0.0061 -0.02779,0.01118 0.178463,0.01124 0.20625,6.3e-5 0.294691,-0.0049 0.196537,-0.01113 z m 0.9375,0 c -0.09815,-0.0062 -0.266905,-0.0062 -0.375,-1.25e-4 -0.108096,0.0061 -0.02779,0.01118 0.178463,0.01124 0.20625,6.3e-5 0.294691,-0.0049 0.196537,-0.01113 z"
       id="path925"
       inkscape:connector-curvature="0" />
    <path
       style="fill:#4d4d4d;stroke:#4d4d4d;stroke-width:1px;stroke-linecap:butt;stroke-linejoin:miter;stroke-opacity:1"
       d="M 63.873512,63.98462 V 85.0625"
       id="path927"
       inkscape:connector-curvature="0" />
  </g>
</svg>
